<?xml version="1.0" encoding="utf-8" ?><svg xmlns="http://www.w3.org/2000/svg" xmlns:xlink="http://www.w3.org/1999/xlink" width="1024" height="1024" viewBox="0 0 1024 1024"><path fill="white" d="M0 0L1024 0L1024 1024L0 1024L0 0Z"/><path fill="#143C44" d="M404.485 150.681C410.269 150.086 416.113 150.563 421.724 152.088C438.406 156.717 451.241 169.84 452.14 187.563C452.497 194.596 450.983 199.572 449.045 206.223C453.12 210.698 462.005 217.86 462.624 223.138C460.031 229.741 442.102 221.292 437.782 219.368C436.951 229.956 434.319 234.675 427.5 242.432C416.436 255.019 408.037 257.251 395.044 245.378L388.208 247.541C391.116 261.349 393.27 275.268 396.564 288.997C397.829 294.272 401.938 299.896 402.32 304.575C401.154 307.111 392.343 311.132 389.393 312.685C390.458 319.926 392.517 336.072 394.461 342.353C400.434 361.652 412.02 381.791 421.034 399.712L473.962 374.589C480.803 371.298 496.798 363.01 503.059 360.819C499.106 373.968 494.37 388.657 491.395 402.024C490.767 404.845 492.009 412.657 491.156 416.996C488.365 420.236 456.283 435.498 450.479 437.647C450.205 438.544 450.303 438.542 450.47 439.459C448.653 442.457 443.65 445.567 440.684 447.46C438.374 447.532 436.93 447.422 434.612 447.24C427.405 453.083 428.076 448.413 420.45 452.622C410.072 458.349 400.402 464.853 389.86 470.353C387.061 467.995 383.953 464.638 381.342 461.963C378.694 470.154 376.39 481.072 373.846 489.689C371.497 497.648 367.722 508.522 366.094 516.294C382.577 525.36 386.896 527.266 400.463 540.309C400.586 542.661 400.849 545.157 401.053 547.517C394.097 549.301 386.501 549.453 379.348 549.811C371.046 550.227 326.204 549.192 321.889 544.178C318.726 540.501 321.534 525.204 322.339 520.189C320.547 518.967 319.445 518.015 317.787 516.597C320.468 494.078 327.666 462.673 333.059 440.718C330.777 440.175 328.26 439.84 325.93 439.514C314.695 437.945 303.724 435.471 292.656 433.011C287.226 446.938 282.548 462.35 277.349 476.434C275.232 482.167 273.43 490.423 270.892 495.664C268.325 500.966 261.913 508.015 258.13 513.171C253.67 519.249 250.117 524.22 246.414 530.869C238.106 545.784 230.628 560.967 222.274 575.909C217.93 583.68 212.041 591.984 208.43 599.588C204.46 607.949 202.219 621.989 198.972 630.119C196.942 632.113 196.363 630.923 194.327 632.126C193.785 635.196 194.33 640.032 194.561 643.285C207.409 648.193 223.978 647.448 229.311 662.105C228.446 666.15 228.017 669.666 227.498 673.782C246.609 674.44 268.772 673.945 288.219 673.96L406.25 673.933L632.402 673.879C629.54 677.337 625.209 681.125 621.338 683.417C606.077 684.051 587.084 683.541 571.475 683.531L471.908 683.259C385.737 683.666 299.565 683.591 213.396 683.034L117.92 683.114C107.32 683.139 96.6394 683.284 86.0611 683.028C82.8773 682.951 82.2717 678.486 83.0937 675.985C84.1221 674.939 84.5144 674.385 86.2388 674.25C95.2715 673.541 105.632 673.695 114.671 673.673C134.667 673.704 154.662 673.631 174.657 673.452C164.975 670.662 129.932 654.876 122.78 648.952C126.17 640.283 133.323 631.624 138.969 624.144C136.475 623.329 132.552 622.429 131.923 619.711C132.71 616.946 134.115 614.191 135.418 611.632C148.459 586.035 159.196 559.42 170.445 533.004C175.435 521.286 179.504 511.9 187.366 501.691C184.302 495.724 183.4 492.085 182.703 485.531C185.691 482.193 191.822 477.465 193.512 473.492C197.858 463.271 198.693 450.041 200.444 438.961L208.873 387.288C213.045 362.24 217.732 332.897 230.38 310.835C230.252 306.515 229.662 301.523 232.454 298.08C236.239 293.413 241.581 291.178 245.671 286.745C251.52 280.405 257.699 272.948 263.484 266.767C276.398 252.968 305.98 223.356 322.309 215.406C325.109 214.042 328.138 213.209 331.241 212.949C339.574 212.217 345.517 214.473 351.744 219.849C361.704 215.72 363.229 217.293 371.859 208.333C370.527 205.263 368.6 200.869 368.211 197.61C367.77 193.917 368.134 190.931 367.245 187.18C365.979 186.204 365.687 186.175 365.148 184.672C365.488 178.951 370.28 171.426 373.823 167.043C381.733 157.259 392.129 152.097 404.485 150.681Z"/><path fill="white" d="M225.315 336.2C228.676 341.058 234.669 346.481 237.203 350.598C246.857 366.281 260.214 384.646 267.664 401.148C258.087 389.296 243.55 374.418 232.872 362.568C230.608 370.135 227.831 385.426 226.36 393.256C223.554 408.603 220.544 423.913 217.331 439.18C214.934 450.722 212.382 463.431 208.587 474.495C223.578 471.568 230.517 469.284 243.887 462.443C229.286 476.083 218.225 483.323 200.345 492.068C216.943 497 234.196 491.944 248.862 483.804C253.166 481.415 256.519 478.16 261.371 476.863L262.268 477.11C265.432 469.262 268.954 457.451 271.68 449.196C277.031 432.992 283.045 415.116 286.861 398.572C285.204 395.183 281.954 391.166 279.625 388.061C283.561 390.504 287.364 392.916 291.458 395.102C295.6 390.427 309.645 365.93 313.958 365.292C313.585 369.609 308.072 374.797 305.648 378.615C297.637 391.236 296.525 406.597 291.569 420.716C285.823 437.088 280.095 453.471 274.117 469.781C271.222 477.68 269.156 486.254 265.614 493.923C260.036 503.952 251.637 512.236 245.569 522.025C233.194 541.988 223.909 563.709 211.559 583.699C209.08 587.713 205.168 593.2 203.506 597.547C199.956 606.83 197.312 616.899 194.645 626.485C181.548 624.748 149.657 617.296 137.891 618.84C144.575 604.196 151.416 590.335 157.952 575.495C162.058 566.224 166.088 556.92 170.042 547.583C176.015 533.452 183.51 512.693 194.071 502.013C189.972 496.305 189.053 494.278 187.995 487.43C191.218 483.892 197.02 478.841 198.617 474.51C203.731 460.65 204.758 443.623 207.259 429.109C212.415 399.188 216.572 365.199 225.315 336.2Z"/><path fill="#143C44" d="M261.371 476.863L262.268 477.11C256.867 492.715 251.771 501.605 241.38 514.267C237.306 519.232 232.829 527.167 229.512 532.819C221.304 546.813 213.383 560.974 205.753 575.291C201.938 582.406 197.513 590.33 194.119 597.598C191.323 603.586 189.557 611.163 186.804 617.482L186.544 618.066C179.223 617.818 161.077 614.589 153.722 613.073C157.511 603.497 163.476 593.323 167.33 583.754C178.08 557.062 188.462 532.023 201.309 506.177C207.314 505.07 212.75 504.407 218.81 502.721C230.567 499.449 252.964 485.651 261.371 476.863Z"/><path fill="white" d="M330.947 217.602C336.157 217.286 340.753 218.253 345.328 220.856C358.942 228.601 360.106 241.325 362.857 255.273C365.894 270.676 368.556 285.764 372.788 300.932C360.267 304.385 338.448 308.848 325.59 309.702C325.872 306.983 326.239 304.479 326.644 301.78C333.621 301.346 349.344 299.064 354.416 294.685L354.457 293.966C351.558 292.608 332.495 297.202 327.332 298.03C328.575 291.79 331.489 254.038 330.176 247.943C328.708 246.722 329.501 246.965 327.833 246.888C325.7 248.951 325.881 257.482 325.596 260.839L323.439 285.19C322.717 280.272 318.964 252.916 315.983 250.638C314.272 251.088 315.021 250.667 313.761 252.109C313.18 254.923 314.941 262.65 315.565 265.908C317.007 277.095 319.29 288.194 320.651 299.427C321.073 302.912 319.428 310.68 321.61 313.424C322.809 314.932 326.585 314.631 328.62 314.647C329.277 321.844 331.704 332.938 333.579 340.051C327.061 343.279 322.793 345.015 315.418 344.553C302.504 343.744 289.253 342.169 276.76 338.735C270.53 337.054 264.467 334.806 258.646 332.021C250.501 328.075 230.639 316.145 235.822 302.291C236.953 299.268 246.244 293.526 249.124 290.286C257.178 281.225 265.413 272.045 273.738 263.174C284.393 251.841 295.846 241.285 308.009 231.588C315.025 225.96 322.218 219.989 330.947 217.602Z"/><path fill="#143C44" d="M248.713 305.675C249.289 305.848 250.325 306.141 250.663 306.623C259.094 318.685 268.082 324.383 282.363 327.844C287.187 329.014 304.699 331.364 307.136 334.986C304.314 335.634 298.416 334.783 295.464 334.319C282.539 332.263 268.678 329.219 258.493 320.436C254.452 316.951 249.16 311.163 248.713 305.675Z"/><path fill="#143C44" d="M306.812 288.16C310.499 289.745 310.098 291.26 309.713 295.136C308.279 309.609 310.505 320.086 320.747 330.815C321.173 331.262 320.546 332.582 320.334 333.278C313.929 331.922 309.292 322.049 307.549 316.203C304.776 306.904 305.463 297.6 306.812 288.16Z"/><path fill="white" d="M363.659 309.65C364.792 310.966 366.59 335.868 366.653 339.176C379.711 354.786 389.028 378.013 401.829 394.362C403.921 397.034 410.065 407.565 412.667 408.225C419.465 409.949 435.207 396.153 440.695 396.687L441.376 397.566C442.098 401.296 435.849 405.769 434.157 410.866C430.08 423.146 453.78 424.037 451.618 431.091C450.992 431.56 449.885 432.436 448.971 432.045C444.906 430.31 432.19 422.521 428.489 426.961C428.436 429.72 431.293 432.595 433.067 434.786C434.473 436.492 436.197 438.22 436.799 440.266C434.392 444.869 429.604 436.376 425.123 437.915C425.056 440.576 428.943 442.314 428.32 445.256C420.741 448.655 413 428.686 409.292 426.455C401.314 421.657 397.153 417.763 390.515 411.041C372.72 393.022 353.247 372.641 342.33 349.565C338.533 341.538 335.659 323.689 333.789 314.634C345.232 312.948 352.182 312.25 363.659 309.65Z"/><path fill="white" d="M384.166 414.503C386.797 415.285 399.811 426.237 403.113 428.753C408.75 433.048 412.752 441.494 418.789 447.343C410.614 452.507 399.015 460.227 390.713 464.396C379.254 453.555 365.958 437.866 355.717 425.382C363.278 421.734 376.226 417.076 384.166 414.503Z"/><path fill="white" d="M494.933 370.007C494.913 372.243 493.024 377.306 492.27 379.631C487.589 394.066 484.927 399.429 486.644 414.499C481.912 416.909 461.564 427.195 457.51 428.395C455.49 423.751 450.493 421.983 445.8 419.625C441.842 417.765 435.707 413.848 440.885 408.158C443.138 405.682 450.494 406.388 453.746 403.705C458.943 399.417 455.251 394.437 452.358 390.388C465.494 383.576 481.255 376.715 494.933 370.007Z"/><path fill="white" d="M404.412 155.675C410.582 155.177 416.79 155.92 422.669 157.859C443.439 164.746 451.501 183.572 444.594 203.864C439.867 188.697 440.793 175.515 425.372 165.047C422.067 162.804 414.188 158.11 410.253 158.861L409.957 159.507C411.515 162.682 416.209 164.389 419.44 165.943C434.806 175.205 434.832 184.966 438.482 200.964C433.219 198.519 424.946 194.602 420.276 191.443C403.537 180.116 396.541 174.903 376.163 172.244C384.573 161.948 391.061 157.821 404.412 155.675Z"/><path fill="white" d="M395.614 201.03C403.202 200.871 403.269 204.651 407.632 210.111C409.026 208.469 410.502 206.876 411.95 205.28C418.79 209.324 425.684 213.278 432.628 217.142C432.303 221.769 431.713 225.458 430.981 230.009C428.21 228.894 426.015 227.803 423.047 228.047L422.782 228.61C424.25 231.671 425.389 232.048 426.875 234.756C427.182 235.315 426.331 236.249 425.861 236.996C424.668 238.588 424.584 238.776 422.994 239.904C420.379 240.17 419.313 239.932 417.42 241.642L417.44 242.415L419.085 243.702L418.799 244.439C400.617 257.327 394.176 230.73 392.975 217.875C387.26 211.251 386.844 204.714 395.614 201.03Z"/><path fill="#143C44" d="M395.444 206.268C399.15 208.237 399.248 209.817 398.035 213.298L396.969 213.325C394.094 211.687 394.625 209.056 395.444 206.268Z"/><path fill="white" d="M338.036 443.816L346.514 445.723C342.761 459.753 339.117 473.783 336.688 488.106C335.531 494.928 334.207 501.715 332.683 508.464C338.961 510.437 345.97 511.433 352.527 511.765C359.838 490.924 364.807 472.415 370.956 451.518C372.972 453.731 375.264 456.028 377.351 458.204C377.339 459.067 374.394 468.428 374.008 469.897C370.021 485.08 364.553 500.385 360.546 515.459C350.958 516.158 332.524 516.195 323.302 514.171C324.023 507.354 326.47 494.973 327.862 488.003C330.65 474.041 333.79 457.256 338.036 443.816Z"/><path fill="white" d="M178.779 628.739C179.173 628.682 187.903 630.543 189.037 630.78C189.273 635.368 188.731 638.418 188.652 642.353C188.367 656.427 213.8 651.563 220.882 658.349L220.894 659.227C217.287 661.478 187.452 656.585 181.767 655.568C165.642 651.745 150.215 645.415 136.052 636.809C137.541 634.678 139.24 632.447 140.789 630.339C149.192 632.783 172.345 636.151 178.779 628.739Z"/><path fill="white" d="M333.754 345.44C334.042 345.539 334.331 345.638 334.619 345.737C336.726 350.335 338.604 355.131 341.24 359.457C346.634 368.308 352.268 377.162 358.982 385.072C366.154 393.522 373.515 401.862 381.089 409.931C378.536 410.884 370.467 414.128 368.047 413.863L367.453 412.859C361.689 398.503 366.575 400.378 352.823 388.877C345.45 382.695 338.042 376.555 330.598 370.458C326.016 366.765 319.925 363.236 317.329 358.057C319.098 357.014 320.991 356.18 322.852 355.303C323.329 353.147 323.433 351.365 323.625 349.179C327.119 348.068 330.341 346.777 333.754 345.44Z"/><path fill="white" d="M383.724 314.484L383.9 314.538C384.707 315.394 390.509 354.842 397.277 362.751C397.855 363.426 416.216 403.044 416.098 402.207C413.026 401.907 411.458 399.109 409.799 396.808C396.838 378.43 383.268 356.476 372.383 336.449C371.424 334.686 370.815 322.855 370.414 319.692L383.724 314.484Z"/><path fill="white" d="M383.968 251.013C384.171 251.266 389.63 280.807 390.451 284.13C392.298 291.599 393.216 295.162 397.134 302.591C390.445 306.925 377.733 311.581 369.72 315.361L369.397 309.137C374.381 307.161 375.07 307 377.899 302.49L382.136 300.842C384.918 299.581 387.182 298.83 388.774 296.182C385.482 294.865 380.526 297.6 377.51 298.962C377.917 292.802 382.596 273.621 380.661 270.323L379.67 270.74C378.705 272.13 375.307 287.205 374.347 290.62L373.277 282.293C377.736 273.888 377.237 267.305 377.266 258.066C379.25 255.746 381.805 253.237 383.968 251.013Z"/><path fill="white" d="M373.762 177.243C395.675 177.256 403.95 187.994 421.599 198.041C427.787 201.564 436.127 203.935 442.381 207.309C444.445 208.423 453.699 217.862 454.188 219.706L452.892 219.557C439.932 215.824 426.399 207.151 414.419 200.385C396.988 190.54 388.976 187.879 369.971 182.561C371.191 180.512 372.316 179.117 373.762 177.243Z"/><path fill="white" d="M227.999 326.849C247.195 352.028 278.046 359.583 308.264 359.086C306.524 360.097 304.649 361.387 302.948 362.5C291.063 369.778 269.913 361.718 257.722 357.51C243.425 352.576 234.614 345.071 226.226 332.72C226.739 330.507 227.267 328.985 227.999 326.849Z"/><path fill="white" d="M232.838 317.232C234.073 317.978 233.377 317.557 234.254 318.779C248.765 339.029 274.531 344.173 297.592 347.948C301.418 348.575 316.108 348.299 317.851 351.08C317.093 352.656 317.19 352.193 315.082 353.113C314.613 353.212 314.142 353.304 313.67 353.389C293.868 356.931 262.151 349.441 245.946 337.416C242.351 334.749 231.594 326.158 230.805 321.269C230.577 319.861 231.961 318.349 232.838 317.232Z"/><path fill="white" d="M384.988 203.456C385.979 204.608 384.015 208.314 384.673 209.933C388.584 219.554 389.606 230.952 393.003 240.451C389.879 241.638 386.475 243.541 383.468 245.113L379.926 239.603C375.083 232.09 370.973 226.508 365.465 219.524C373.821 214.269 377.829 210.225 384.988 203.456Z"/><path fill="white" d="M134.443 638.859C149.292 649.893 177.473 659.414 195.756 661.707C203.398 662.665 214.919 663.562 221.92 664.984L222.513 666.019C222.501 667.516 222.627 667.5 221.757 668.677L220.375 668.787C211.007 668.324 187.955 667.018 179.152 664.557C165.682 660.791 144.059 650.233 130.917 643.928L134.443 638.859Z"/><path fill="white" d="M340.714 521.763C364.783 520.849 364.139 521.007 384.533 534.482L368.568 534.468C355.71 534.015 342.535 531.932 329.903 529.605C328.712 529.386 327.734 528.466 326.981 527.592C326.737 526.127 326.542 526.744 327.322 525.635C327.607 525.559 328.243 525.372 328.471 525.407C333.061 526.114 336.196 522.48 340.714 521.763Z"/><path fill="white" d="M297.472 419.691C316.507 424.053 328.331 423.795 347.252 421.866C344.362 424.248 341.768 427.287 339.243 430.078L334.307 435.943C320.89 433.474 308.086 431.209 294.603 428.54L297.472 419.691Z"/><path fill="white" d="M359.479 221.769C364.934 224.187 375.775 242.353 378.987 248.289C376.115 251.233 374.31 253.058 371.992 256.428C371.752 260.891 372.607 265.435 372.397 270.609L371.639 273.108L371.232 272.97C370.203 265.938 369.165 260.522 367.684 253.592C373.346 240.515 361.917 234.457 356.822 224.611C357.182 222.997 357.755 223.083 359.479 221.769Z"/><path fill="white" d="M326.353 533.728C339.131 535.705 351.216 537.391 364.151 538.154C369.069 538.445 387.619 537.542 390.31 540.108L389.553 540.405C371.392 542.247 358.079 542.279 340.034 539.595C335.657 538.944 330.595 538.896 326.378 537.642C325.598 536.166 326.045 535.796 326.353 533.728Z"/><path fill="white" d="M144.175 623.778C148.306 624.151 173.473 626.403 175.673 628.471L175.071 629.263C167.682 630.304 149.802 630.559 143.559 627.149C143.119 625.862 143.621 625.419 144.175 623.778Z"/><path fill="#99C2BF" d="M129.303 647.092C151.137 654.298 168.762 670.648 193.223 670.759C196.811 670.775 220.383 672.721 221.409 673.674C212.711 674.674 184.252 670.764 175.544 668.918C170.69 667.889 130.447 649.164 129.303 647.092Z"/><path fill="#537377" d="M324.975 540.157C337.471 541.384 350.296 544.226 363.176 544.637C372.245 544.926 384.254 543.791 393.53 543.184C393.873 543.365 394.216 543.547 394.56 543.729C372.964 546.641 356.337 546.026 334.939 542.597C332.406 542.191 326.245 541.847 324.975 540.157Z"/><path fill="white" d="M444.965 393.379C448.968 393.409 452.712 395.683 450.648 400.134C448.579 400.939 448.236 401.155 446.431 400.144C445.189 398.273 445.211 395.721 444.965 393.379Z"/><path fill="white" d="M437.237 433.339C439.645 433.945 442.894 435.446 444.696 437.231L444.687 438.574C443.604 439.231 444.023 439.069 442.793 439.266C441.01 438.157 438.746 435.113 437.237 433.339Z"/><path fill="#143C44" d="M665.097 172.582C670.124 174.343 677.491 178.504 682.276 180.98C691.683 185.847 701.036 191.1 710.48 195.892C734.884 208.257 759.21 220.778 783.455 233.454C795.743 239.824 810.792 246.867 822.368 253.878C820.796 262.345 820.15 271.506 818.897 280.143C804.248 381.15 765.965 494.463 663.033 536.502C651.177 535.506 622.603 513.501 613.278 505.329C558.147 457.01 529.427 383.993 514.482 313.859C510.691 296.073 506.853 272.922 505.923 254.443C512.583 250.501 520.056 246.971 526.983 243.387L572.032 220.354C602.212 204.745 634.342 186.704 665.097 172.582Z"/><path fill="white" d="M664.657 184.384C667.392 184.411 744.43 225.108 753.333 229.707L790.465 248.895C797.114 252.333 806.039 256.675 812.24 260.504C809.648 273.034 808.664 286.183 806.263 298.807C791.691 375.443 764.037 457.658 698.434 505.583C688.058 513.164 675.247 519.935 663.712 525.589C658.427 527.094 635.454 510.283 630.297 506.362C572.874 462.691 543.387 391.735 526.854 323.583C521.862 303.006 519.276 281.567 516.576 260.633C521.551 257.355 530.806 253.159 536.534 250.201C549.792 243.277 563.087 236.424 576.418 229.642C605.97 214.687 634.856 198.935 664.657 184.384Z"/><path fill="#99C2BF" d="M706.434 296.849C708.951 297.801 728.68 318.785 731.802 322.107C725.345 328.141 718.082 336.264 711.7 342.7L658.825 395.941C650.523 388.061 642.036 379.014 633.86 370.85C625.056 362.284 616.206 353.765 607.311 345.293C613.895 338.471 624.223 327.693 631.46 321.814C638.015 326.95 650.493 339.628 656.9 345.811L685.695 317.343C692.351 310.677 699.504 303.115 706.434 296.849Z"/><path fill="#143C44" d="M582.607 239.506C583.909 240.242 584.959 242.054 585.869 243.355C569.35 252.639 551.064 260.692 534.786 270.079C537.663 291.845 541.411 316.585 547.523 337.966C561.813 387.958 585.756 442.095 623.591 478.88C634.573 489.557 649.704 499.47 662.74 506.99C685.325 496.67 701.962 482.915 718.705 465.312C719.577 464.395 722.213 465.97 722.69 467.625L721.392 469.304C706.264 485.906 683.777 503.922 662.71 512.546C651.262 506.548 640.435 499.433 630.387 491.305C584.609 454.751 555.242 386.936 540.824 331.479C535.549 311.189 532.092 287.822 529.735 267.027C536.253 263.035 544.571 259.099 551.522 255.59C561.957 250.372 572.32 245.011 582.607 239.506Z"/><path fill="#143C44" d="M663.913 197.39C666.03 197.78 679.128 204.647 681.743 205.978C699.345 214.883 716.849 223.98 734.252 233.267C748.343 240.544 762.395 247.898 776.406 255.328C783.223 258.901 791.31 262.75 797.812 266.639C797.053 282.614 793.699 297.68 790.478 313.245C781.903 354.691 768.88 395.236 746.643 431.577L742.698 428.257C743.693 426.077 745.055 423.764 746.307 421.698C754.084 408.86 759.997 395.505 765.723 381.623C777.893 350.921 789.385 303.008 792.719 269.696C779.421 262.221 765.515 255.338 751.957 248.27L704.798 223.49C692.525 217.191 676.841 209.659 665.195 202.953C654.405 207.303 640.556 215.845 629.912 220.924C625.086 223.226 619.669 226.779 614.556 228.323C613.102 227.776 612.319 226.225 611.36 224.871C615.14 222.396 621.057 219.677 625.146 217.465C637.94 210.542 651.362 204.724 663.913 197.39Z"/><path fill="#143C44" d="M815.769 647.588C817.264 647.37 817.31 647.231 818.703 647.704C820.672 651.494 824.037 664.036 825.369 668.626C838.047 668.258 845.108 669.444 857.321 672.744C861.08 666.222 864.958 659.654 869.834 653.914C880.759 657.478 894.029 665.58 902.6 673.2C899.966 679.066 894.677 687.472 891.27 693.131C901.615 703.059 905.003 707.4 911.308 720.351C915.253 719.534 931.649 715.571 934.378 716.85C938.283 721.978 940.816 746.344 941.174 753.367C935.014 754.973 925.886 756.262 919.565 757.276C918.902 770.838 916.978 778.77 912.198 791.133C915.465 793.111 928.021 800.132 929.114 802.743C928.834 809.729 915.418 827.828 910.714 834.093C902.759 830.09 898.867 827.306 891.666 822.18C884.628 830.106 877.603 836.025 868.085 840.66C870.053 847.928 872.544 854.701 874.098 862.185C866.296 867.066 855.299 869.784 846.403 871.854C843.818 872.343 841.04 872.718 838.425 873.121C835.785 866.907 832.719 856.317 830.572 849.61C817.245 849.752 812.54 848.36 800.074 844.011C795.568 849.854 792.504 856.193 788.174 861.918C779.608 859.117 762.387 850.371 756.253 844.048C757.919 839.375 762.418 830.575 764.709 825.787C755.423 816.192 752.44 810.733 746.705 799.097C741.607 800.161 729.196 804.284 725.004 802.787C720.832 798.33 716.434 776.151 715.811 769.923C721.991 766.695 731.186 764.12 737.994 762.007C737.595 746.9 738.115 741.08 743.303 727.178C741.208 725.938 738.173 724.065 736.148 722.92C723.816 715.942 723.067 714.654 729.871 702.178C733.126 696.211 735.697 689.649 740.946 684.53C747.955 687.016 757.153 692.331 764.025 695.957C771.573 687.997 776.772 684.208 786.272 678.875C785.541 673.202 781.704 660.561 783.062 656.602C787.335 654.016 809.9 648.951 815.769 647.588Z"/><path fill="white" d="M814.358 652.58L815.348 652.695C817.016 654.686 820.382 669.759 821.471 673.519C838.784 672.767 843.515 673.801 859.878 678.662C862.421 672.767 867.739 664.937 871.306 659.397C879.358 662.542 889.721 669.231 896.496 674.502C893.204 680.973 888.86 687.27 885.394 694.052C894.32 701.893 905.186 714.103 907.414 726.19C915.224 724.269 923.107 722.655 931.045 721.354C933.688 730.845 935.14 739.487 936.196 749.236C929.509 750.902 921.523 751.789 914.534 753.147C914.513 769.215 912.668 778.148 905.772 792.598C911.332 796.424 918.199 800.476 924.046 804.345C919.55 813.009 915.295 820.317 909.106 827.966C903.036 823.986 897.188 820.097 890.901 816.465C879.919 827.259 876.95 830.788 862.719 837.58C864.184 844.659 866.785 853.009 868.806 860.069C861.758 863.436 850.777 866.268 843.108 868.02C842.268 868.168 842.5 868.101 841.599 867.901C839.716 865.238 835.323 849.377 834.064 845.091C820.695 845.239 810.571 844.019 798.278 837.956C794.309 843.379 790.027 850.146 786.273 855.782C776.947 851.951 770.484 848.356 761.688 843.439C764.441 836.339 767.81 830.948 770.715 824.135C759.058 813.474 755.842 807.44 749.109 793.31C742.817 795.352 734.293 797.081 727.82 798.503C724.831 790.775 722.33 780.827 720.365 772.821C727.6 770.092 735.166 767.675 742.523 765.235C742.069 749.705 741.791 739.464 749.532 725.322C743.15 721.613 735.984 717.254 729.952 713.076C733.375 704.712 737.344 697.713 741.762 689.898C749.12 692.938 757.798 698.125 764.858 702.132C774.614 691.206 779.529 687.898 792.207 681.008C790.429 673.947 788.773 666.855 787.24 659.736C793.437 657.425 807.417 654.255 814.358 652.58Z"/><path fill="#143C44" d="M821.062 696.301C855.584 692.164 886.932 716.775 891.105 751.292C895.279 785.81 870.701 817.183 836.187 821.393C801.623 825.609 770.194 800.986 766.014 766.418C761.834 731.849 786.489 700.445 821.062 696.301Z"/><path fill="white" d="M825.265 700.608C857.269 698.792 884.743 723.138 886.79 755.128C888.837 787.118 864.69 814.767 832.716 817.045C800.413 819.346 772.419 794.897 770.351 762.579C768.283 730.261 792.933 702.443 825.265 700.608Z"/><path fill="#143C44" d="M824.605 712.408C850.309 710.318 872.843 729.453 874.947 755.156C877.05 780.859 857.927 803.403 832.226 805.521C806.504 807.64 783.938 788.499 781.833 762.777C779.728 737.054 798.881 714.499 824.605 712.408Z"/><path fill="white" d="M824.117 717.105C847.239 714.683 867.949 731.457 870.382 754.579C872.814 777.7 856.048 798.417 832.928 800.86C809.794 803.304 789.061 786.525 786.627 763.39C784.193 740.255 800.98 719.529 824.117 717.105Z"/><path fill="#143C44" d="M278.93 568.156C293.221 568.044 314.43 565.57 325.338 576.018C339.519 589.603 338.821 614.233 325.985 628.609C312.972 640.245 295.468 637.149 278.825 637.078C278.373 630.763 278.652 621.063 278.647 614.557C278.646 599.09 278.74 583.622 278.93 568.156Z"/><path fill="white" d="M291.093 578.688C298.592 578.773 308.704 578.197 314.678 583.119C325.638 592.149 324.791 609.548 316.825 619.951C308.993 627.066 300.95 626.018 290.979 626.038L291.093 578.688Z"/><path fill="#143C44" d="M662.933 693.113C678.93 691.431 693.275 703 695.02 718.989C696.765 734.979 685.253 749.37 669.27 751.178C653.198 752.995 638.709 741.405 636.955 725.326C635.2 709.247 646.848 694.804 662.933 693.113Z"/><path fill="white" d="M664.086 696.791C678.051 695.775 690.197 706.271 691.214 720.237C692.232 734.202 681.737 746.349 667.772 747.368C653.804 748.388 641.655 737.89 640.637 723.922C639.619 709.955 650.118 697.807 664.086 696.791Z"/><path fill="#143C44" d="M663.422 701.67C674.639 700.29 684.846 708.276 686.206 719.495C687.566 730.714 679.562 740.907 668.34 742.247C657.147 743.583 646.985 735.604 645.629 724.413C644.273 713.222 652.234 703.047 663.422 701.67Z"/><path fill="white" d="M665.044 704.514C674.659 704.097 682.806 711.522 683.28 721.135C683.754 730.747 676.377 738.938 666.767 739.468C657.078 740.003 648.804 732.551 648.326 722.858C647.848 713.166 655.349 704.935 665.044 704.514Z"/><path fill="#143C44" d="M725.489 566.498L737.144 566.451C736.801 589.476 737.048 613.164 736.971 636.255L726.096 636.275L726.12 629.987C718.972 637.852 710.532 638.698 700.772 635.24C678.572 622.591 684.41 586.769 711.46 586.762C717.46 586.76 721.61 589.483 725.541 593.742L725.489 566.498Z"/><path fill="white" d="M711.93 597.647C729.479 597.853 730.748 622.338 713.663 626.085C695.005 624.943 694.039 600.486 711.93 597.647Z"/><path fill="#143C44" d="M615.447 586.663C624.305 586.301 628.186 589.414 633.971 595.363L634 587.365L645.125 587.358C644.878 603.687 644.975 620.314 644.91 636.668L633.627 636.666C633.403 634.871 633.262 632.845 633.112 631.027L632.562 630.572L631.11 632.169C627.444 635.436 624.388 637.361 619.32 638.101C613.437 638.998 607.444 637.428 602.756 633.762C587.806 622.029 590.283 594.771 608.595 588.105C610.969 587.24 612.982 586.976 615.447 586.663Z"/><path fill="white" d="M615.81 598.068C623.66 596.189 631.568 600.946 633.587 608.761C635.606 616.576 630.992 624.568 623.214 626.727C618.057 628.158 612.53 626.695 608.757 622.899C604.984 619.104 603.554 613.567 605.016 608.419C606.478 603.271 610.605 599.314 615.81 598.068Z"/><path fill="#143C44" d="M494.709 567.677C508.642 566.494 516.871 571.721 525.797 581.669C521.952 583.885 520.666 584.972 517.203 587.849C514.294 585.014 511.74 582.772 508.093 581.007C495.68 574.996 480.242 581.256 476.704 594.939C474.87 602.033 475.144 608.754 478.851 615.352C481.985 620.884 487.262 624.878 493.438 626.392C505.25 629.381 514.964 623.176 517.996 611.557C512.627 611.424 502.652 611.886 497.759 611.222C496.823 609.831 497.15 608.19 497.207 606.41L497.133 600.544C507.897 600.56 518.662 600.672 529.424 600.88C529.675 619.28 524.534 634.429 503.59 637.726C490.864 639.516 476.086 634.31 469.26 622.927C455.327 599.694 467.303 570.802 494.709 567.677Z"/><path fill="#143C44" d="M668.517 667.288C670.492 667.096 672.691 667.053 674.693 666.966L677.406 679.757C681.742 681.455 684.49 682.647 688.615 684.785C690.739 682.459 695.608 678.453 698.043 676.358C703.253 680.735 709.224 685.905 713.965 690.735C710.862 693.91 708.711 696.334 705.992 699.807C708.456 705.056 709.363 707.969 709.695 713.696C713.488 713.38 720.664 712.552 723.276 715.708C723.557 717.46 723.579 717.26 722.505 718.879C721.523 720.361 717.185 718.926 715.358 718.755C712.311 718.47 709.714 718.433 706.663 718.492C705.537 711.492 704.938 705.026 700.733 699.145L708.151 690.982L698.303 682.083C695.452 684.238 692.437 687.4 689.851 689.961C684.106 687.275 679.843 684.896 673.559 683.76C673.019 678.924 672.604 675.847 671.559 671.122C667.363 671.564 661.855 671.652 657.552 671.844L656.99 684.104C648.223 687.339 646.286 687.867 639.718 694.408C637.138 692.76 633.956 690.347 631.403 688.531C628.729 691.542 626.055 695.257 623.602 698.503L631.627 705.297C628.054 710.807 627.402 715.692 625.727 722.105C622.361 722.854 618.939 723.702 615.576 724.497L616.712 737.445L629.121 737.825C633.739 743.954 636.866 748.885 642.03 754.693C640.544 757.409 637.697 761.258 635.847 763.912C638.913 765.723 643.3 769.205 646.443 771.423C649.677 767.442 651.25 764.854 653.561 760.346C661.795 762.405 665.421 762.456 673.873 762.042C674.887 764.465 676.746 770.649 679.225 771.003C683.15 769.254 685.603 768.349 689.69 767.138C689.085 762.455 689.207 760.713 686.433 756.798C691.559 751.77 693.068 750.302 696.014 743.752C700.78 746.96 704.766 750.719 709.86 753.465C713.49 749.114 716.703 744.431 719.456 739.479L719.279 731.137C715.656 731.493 706.597 733.39 704.593 730.122C704.881 728.126 704.439 728.873 705.552 727.59C709.15 726.794 719.128 726.639 723.541 726.402C723.339 740.742 723.114 743.464 714.219 755.639C713.31 756.883 711.967 758.439 710.41 758.62C707.137 757.025 701.307 752.224 698.321 749.746C695.911 753.298 694.914 754.333 691.888 757.483C692.972 761.393 693.461 765.985 693.721 770.025L676.422 776.344C673.963 772.687 672.575 770.19 670.507 766.271C664.596 766.569 662.353 766.269 656.615 764.778C654.007 768.915 650.972 772.642 647.844 776.387C642.052 773.755 636.22 769.285 630.992 765.551C632.447 762.384 634.782 758.73 636.615 755.685C633.271 751.432 630.719 746.439 627.004 742.532C622.093 741.921 617.574 741.707 612.649 741.448C612.095 734.081 611.638 727.371 611.468 719.995C615.417 719.339 618.697 718.741 622.584 717.821C623.82 714.171 624.997 710.502 626.113 706.814C623.431 704.036 620.721 701.285 617.983 698.561C621.571 693.397 625.97 688.518 630.077 683.733C633.879 684.957 635.952 686.008 639.565 687.789C644.56 684.414 647.062 683.182 652.612 680.713C653.078 677.339 653.072 672.238 653.16 668.686C657.477 667.814 663.968 667.584 668.517 667.288Z"/><path fill="#143C44" d="M572.286 587.04L583.544 587.122L583.559 597.453C583.734 615.691 587.572 636.926 561.997 638.208C554.773 638.57 544.112 634.792 541.63 628.177C537.722 617.761 539.269 598.141 539.306 587.079C542.944 587.071 546.698 587.23 550.345 587.339C550.332 597.494 549.957 608.22 550.652 618.285C551.791 630.482 570.261 630.496 571.589 618.82C572.77 608.43 571.746 597.54 572.286 587.04Z"/><path fill="#143C44" d="M417.914 565.598C428.4 565.125 429.18 565.404 429.048 576.237C426.716 575.712 424.568 575.434 422.209 575.097C414.847 577.75 415.945 580.429 416.015 587.561L424.619 587.636C424.864 590.265 424.82 593.404 424.859 596.08C422.041 596.415 418.514 596.439 415.612 596.536C415.8 609.065 415.792 621.596 415.589 634.125C415.458 636.169 415.816 635.898 414.716 636.988C411.636 637.792 407.678 637.38 404.29 637.356C404.416 623.751 404.427 610.145 404.321 596.54L398.1 596.118L398.254 587.695L404.406 587.566C404.357 576.378 405.357 568.267 417.914 565.598Z"/><path fill="#143C44" d="M445.27 567.981C445.878 569.605 445.674 584.452 445.661 587.166L457.558 587.352L457.577 596.366L445.691 596.42C445.66 601.447 444.401 622.355 447.396 626.295C448.916 628.293 454.137 627.601 456.784 627.375C457.319 629.9 458.245 632.697 457.569 635.048C456.533 636.713 455.496 636.885 453.657 637.635C440.398 640.193 434.173 634.566 434.415 621.273C434.565 613.073 434.453 604.467 434.425 596.245L429.42 596.108C429.326 593.405 428.83 590.306 430.401 588.261C432.079 588.302 432.057 588.435 433.459 587.581C435.498 584.829 434.983 576.703 435.009 572.938C438.501 570.958 441.594 569.616 445.27 567.981Z"/><path fill="#143C44" d="M365.437 586.572C367.148 586.38 368.625 585.965 370.087 586.712C372.182 589.22 371.168 595.275 371.143 598.761C365.768 598.451 359.318 598.662 357.834 604.903C355.684 613.951 356.639 627.951 356.65 637.173C353.742 637.211 348.112 637.511 345.531 636.937L345.124 636.018C344.975 619.913 345.305 603.671 345.338 587.533L355.537 587.536L355.47 596.041C358.674 591.514 360.463 589.121 365.437 586.572Z"/><path fill="#143C44" d="M682.744 586.539C683.332 586.62 682.969 586.518 683.724 587.103C684.104 590.12 683.693 595.207 683.534 598.427C663.482 599.013 668.557 621.495 668.55 636.518L657.03 636.56L657.12 630.649C657.389 616.282 657.491 601.913 657.425 587.544C660.967 587.402 664.511 587.318 668.055 587.292L667.974 596.715C672.157 589.857 674.994 588.579 682.744 586.539Z"/><path fill="#143C44" d="M378.674 587.561L390.224 587.56L390.068 618.471C390.071 624.165 390.288 631.778 389.875 637.288C386.318 637.413 382.326 637.339 378.734 637.353C379.024 621.069 378.594 603.997 378.674 587.561Z"/><path fill="#143C44" d="M383.005 566.782C385.412 566.04 388.031 566.662 389.848 568.406C391.664 570.15 392.392 572.741 391.749 575.176C391.106 577.611 389.194 579.505 386.753 580.125C383.108 581.051 379.39 578.901 378.373 575.281C377.356 571.66 379.411 567.889 383.005 566.782Z"/></svg>